<?xml version="1.0" encoding="UTF-8" standalone="no"?>
<svg
   xmlns:dc="http://purl.org/dc/elements/1.1/"
   xmlns:cc="http://creativecommons.org/ns#"
   xmlns:rdf="http://www.w3.org/1999/02/22-rdf-syntax-ns#"
   xmlns:svg="http://www.w3.org/2000/svg"
   xmlns="http://www.w3.org/2000/svg"
   xmlns:sodipodi="http://sodipodi.sourceforge.net/DTD/sodipodi-0.dtd"
   xmlns:inkscape="http://www.inkscape.org/namespaces/inkscape"
   width="700pt"
   height="700pt"
   version="1.1"
   viewBox="0 0 700 700"
   id="svg288"
   sodipodi:docname="gspot.svg"
   inkscape:version="1.0.2 (e86c870879, 2021-01-15)">
  <metadata
     id="metadata292">
    <rdf:RDF>
      <cc:Work
         rdf:about="">
        <dc:format>image/svg+xml</dc:format>
        <dc:type
           rdf:resource="http://purl.org/dc/dcmitype/StillImage" />
        <dc:title></dc:title>
      </cc:Work>
    </rdf:RDF>
  </metadata>
  <sodipodi:namedview
     pagecolor="#ffffff"
     bordercolor="#666666"
     borderopacity="1"
     objecttolerance="10"
     gridtolerance="10"
     guidetolerance="10"
     inkscape:pageopacity="0"
     inkscape:pageshadow="2"
     inkscape:window-width="1920"
     inkscape:window-height="1017"
     id="namedview290"
     showgrid="false"
     inkscape:snap-object-midpoints="false"
     inkscape:zoom="0.77892857"
     inkscape:cx="503.89729"
     inkscape:cy="466.66667"
     inkscape:window-x="1912"
     inkscape:window-y="-8"
     inkscape:window-maximized="1"
     inkscape:current-layer="g286" />
  <defs
     id="defs212">
    <symbol
       id="t"
       overflow="visible">
      <path
         d="m14.656-0.875c-0.76172 0.39844-1.5547 0.69531-2.375 0.89062-0.8125 0.19531-1.6641 0.29688-2.5469 0.29688-2.6562 0-4.7617-0.73828-6.3125-2.2188-1.5547-1.4883-2.3281-3.5039-2.3281-6.0469 0-2.5508 0.77344-4.5664 2.3281-6.0469 1.5508-1.4883 3.6562-2.2344 6.3125-2.2344 0.88281 0 1.7344 0.10156 2.5469 0.29688 0.82031 0.19922 1.6133 0.49609 2.375 0.89062v3.2969c-0.76172-0.51953-1.5117-0.89844-2.25-1.1406-0.74219-0.23828-1.5234-0.35938-2.3438-0.35938-1.4688 0-2.625 0.46875-3.4688 1.4062-0.83594 0.9375-1.25 2.2344-1.25 3.8906 0 1.6484 0.41406 2.9375 1.25 3.875 0.84375 0.9375 2 1.4062 3.4688 1.4062 0.82031 0 1.6016-0.11719 2.3438-0.35938 0.73828-0.23828 1.4883-0.61719 2.25-1.1406z"
         id="path152" />
    </symbol>
    <symbol
       id="d"
       overflow="visible">
      <path
         d="m10.719-8.7031c-0.33594-0.15625-0.66797-0.26953-1-0.34375-0.32422-0.082031-0.65625-0.125-1-0.125-0.98047 0-1.7344 0.32031-2.2656 0.95312-0.53125 0.625-0.79688 1.5273-0.79688 2.7031v5.5156h-3.8125v-11.969h3.8125v1.9688c0.48828-0.78125 1.0508-1.3477 1.6875-1.7031 0.64453-0.36328 1.4102-0.54688 2.2969-0.54688 0.13281 0 0.27344 0.007812 0.42188 0.015625 0.14453 0.011719 0.36328 0.03125 0.65625 0.0625z"
         id="path155" />
    </symbol>
    <symbol
       id="c"
       overflow="visible">
      <path
         d="m13.781-6.0156v1.0938h-8.9375c0.09375 0.89844 0.41406 1.5703 0.96875 2.0156 0.55078 0.44922 1.3281 0.67188 2.3281 0.67188 0.80078 0 1.625-0.11719 2.4688-0.35938 0.84375-0.23828 1.7109-0.59766 2.6094-1.0781v2.9531c-0.90625 0.33594-1.8125 0.58984-2.7188 0.76562s-1.8125 0.26562-2.7188 0.26562c-2.1562 0-3.8398-0.54688-5.0469-1.6406-1.1992-1.1016-1.7969-2.6484-1.7969-4.6406 0-1.9453 0.58594-3.4766 1.7656-4.5938 1.1758-1.125 2.8008-1.6875 4.875-1.6875 1.875 0 3.375 0.57031 4.5 1.7031 1.1328 1.125 1.7031 2.6367 1.7031 4.5312zm-3.9375-1.2656c0-0.72656-0.21484-1.3125-0.64062-1.75-0.41797-0.44531-0.96875-0.67188-1.6562-0.67188-0.74219 0-1.3438 0.21094-1.8125 0.625-0.46094 0.41797-0.74609 1.0156-0.85938 1.7969z"
         id="path158" />
    </symbol>
    <symbol
       id="e"
       overflow="visible">
      <path
         d="m7.2031-5.3906c-0.80469 0-1.4062 0.13672-1.8125 0.40625-0.39844 0.27344-0.59375 0.67188-0.59375 1.2031 0 0.48047 0.16016 0.85938 0.48438 1.1406 0.32031 0.27344 0.77344 0.40625 1.3594 0.40625 0.71875 0 1.3203-0.25391 1.8125-0.76562 0.48828-0.51953 0.73438-1.1719 0.73438-1.9531v-0.4375zm5.8438-1.4375v6.8281h-3.8594v-1.7656c-0.51172 0.71875-1.0898 1.2461-1.7344 1.5781-0.63672 0.33203-1.418 0.5-2.3438 0.5-1.2422 0-2.2461-0.35938-3.0156-1.0781-0.77344-0.72656-1.1562-1.6719-1.1562-2.8281 0-1.3945 0.47656-2.4219 1.4375-3.0781 0.96875-0.65625 2.4883-0.98438 4.5625-0.98438h2.25v-0.29688c0-0.60156-0.24219-1.0469-0.71875-1.3281-0.48047-0.28125-1.2266-0.42188-2.2344-0.42188-0.8125 0-1.5742 0.085937-2.2812 0.25-0.71094 0.15625-1.3672 0.40234-1.9688 0.73438v-2.9219c0.82031-0.19531 1.6445-0.34766 2.4688-0.45312 0.82031-0.10156 1.6484-0.15625 2.4844-0.15625 2.1562 0 3.7109 0.42969 4.6719 1.2812 0.95703 0.84375 1.4375 2.2266 1.4375 4.1406z"
         id="path161" />
    </symbol>
    <symbol
       id="b"
       overflow="visible">
      <path
         d="m6.0156-15.359v3.3906h3.9375v2.7344h-3.9375v5.0781c0 0.55469 0.10938 0.92969 0.32812 1.125 0.21875 0.19922 0.65625 0.29688 1.3125 0.29688h1.9688v2.7344h-3.2812c-1.5117 0-2.5859-0.3125-3.2188-0.9375-0.625-0.63281-0.9375-1.707-0.9375-3.2188v-5.0781h-1.9062v-2.7344h1.9062v-3.3906z"
         id="path164" />
    </symbol>
    <symbol
       id="i"
       overflow="visible">
      <path
         d="m9.9688-10.219v-6.4062h3.8594v16.625h-3.8594v-1.7344c-0.52344 0.71094-1.1016 1.2305-1.7344 1.5625-0.63672 0.32031-1.3711 0.48438-2.2031 0.48438-1.4688 0-2.6797-0.58203-3.625-1.75-0.94922-1.1758-1.4219-2.6875-1.4219-4.5312s0.47266-3.3477 1.4219-4.5156c0.94531-1.1758 2.1562-1.7656 3.625-1.7656 0.83203 0 1.5664 0.16797 2.2031 0.5 0.63281 0.32422 1.2109 0.83594 1.7344 1.5312zm-2.5156 7.75c0.82031 0 1.4453-0.29688 1.875-0.89062 0.42578-0.60156 0.64062-1.4727 0.64062-2.6094 0-1.1445-0.21484-2.0156-0.64062-2.6094-0.42969-0.59375-1.0547-0.89062-1.875-0.89062-0.8125 0-1.4336 0.29688-1.8594 0.89062-0.42969 0.59375-0.64062 1.4648-0.64062 2.6094 0 1.1367 0.21094 2.0078 0.64062 2.6094 0.42578 0.59375 1.0469 0.89062 1.8594 0.89062z"
         id="path167" />
    </symbol>
    <symbol
       id="h"
       overflow="visible">
      <path
         d="m8.2031-2.4688c0.82031 0 1.4453-0.29688 1.875-0.89062 0.42578-0.60156 0.64062-1.4727 0.64062-2.6094 0-1.1445-0.21484-2.0156-0.64062-2.6094-0.42969-0.59375-1.0547-0.89062-1.875-0.89062-0.82422 0-1.4531 0.30469-1.8906 0.90625-0.4375 0.59375-0.65625 1.4609-0.65625 2.5938 0 1.1367 0.21875 2.0078 0.65625 2.6094 0.4375 0.59375 1.0664 0.89062 1.8906 0.89062zm-2.5469-7.75c0.53125-0.69531 1.1133-1.207 1.75-1.5312 0.64453-0.33203 1.3828-0.5 2.2188-0.5 1.4688 0 2.6758 0.58984 3.625 1.7656 0.94531 1.168 1.4219 2.6719 1.4219 4.5156s-0.47656 3.3555-1.4219 4.5312c-0.94922 1.168-2.1562 1.75-3.625 1.75-0.83594 0-1.5742-0.16797-2.2188-0.5-0.63672-0.33203-1.2188-0.84766-1.75-1.5469v1.7344h-3.8125v-16.625h3.8125z"
         id="path170" />
    </symbol>
    <symbol
       id="g"
       overflow="visible">
      <path
         d="m0.26562-11.969h3.8281l3.2188 8.125 2.7344-8.125h3.8125l-5.0312 13.094c-0.5 1.332-1.0898 2.2656-1.7656 2.7969-0.66797 0.53125-1.5547 0.79688-2.6562 0.79688h-2.2188v-2.5h1.2031c0.64453 0 1.1133-0.10547 1.4062-0.3125 0.30078-0.21094 0.53125-0.57812 0.6875-1.1094l0.10938-0.34375z"
         id="path173" />
    </symbol>
    <symbol
       id="f"
       overflow="visible">
      <path
         d="m2.0156-15.953h4.1094v5.8281l5.9219-5.8281h4.7812l-7.6875 7.5625 8.4688 8.3906h-5.1406l-6.3438-6.2812v6.2812h-4.1094z"
         id="path176" />
    </symbol>
    <symbol
       id="a"
       overflow="visible">
      <path
         d="m7.5312-9.5156c-0.84375 0-1.4922 0.30859-1.9375 0.92188-0.44922 0.60547-0.67188 1.4805-0.67188 2.625 0 1.1484 0.22266 2.0273 0.67188 2.6406 0.44531 0.60547 1.0938 0.90625 1.9375 0.90625 0.83203 0 1.4688-0.30078 1.9062-0.90625 0.44531-0.61328 0.67188-1.4922 0.67188-2.6406 0-1.1445-0.22656-2.0195-0.67188-2.625-0.4375-0.61328-1.0742-0.92188-1.9062-0.92188zm0-2.7344c2.0508 0 3.6562 0.55859 4.8125 1.6719 1.1641 1.1055 1.75 2.6406 1.75 4.6094s-0.58594 3.5117-1.75 4.625c-1.1562 1.1055-2.7617 1.6562-4.8125 1.6562-2.0625 0-3.6797-0.55078-4.8438-1.6562-1.168-1.1133-1.75-2.6562-1.75-4.625s0.58203-3.5039 1.75-4.6094c1.1641-1.1133 2.7812-1.6719 4.8438-1.6719z"
         id="path179" />
    </symbol>
    <symbol
       id="s"
       overflow="visible">
      <path
         d="m1.8438-16.625h3.8125v9.0469l4.4062-4.3906h4.4375l-5.8438 5.5 6.3125 6.4688h-4.6406l-4.6719-4.9844v4.9844h-3.8125z"
         id="path182" />
    </symbol>
    <symbol
       id="r"
       overflow="visible">
      <path
         d="m9.7031-16.625v2.5156h-2.1094c-0.54297 0-0.92188 0.10156-1.1406 0.29688-0.21094 0.19922-0.3125 0.53906-0.3125 1.0156v0.82812h3.2656v2.7344h-3.2656v9.2344h-3.8281v-9.2344h-1.8906v-2.7344h1.8906v-0.82812c0-1.3008 0.36328-2.2656 1.0938-2.8906 0.72656-0.625 1.8516-0.9375 3.375-0.9375z"
         id="path185" />
    </symbol>
    <symbol
       id="q"
       overflow="visible">
      <path
         d="m12.922-9.9688c0.48828-0.75 1.0625-1.3164 1.7188-1.7031 0.66406-0.38281 1.3984-0.57812 2.2031-0.57812 1.375 0 2.4219 0.42969 3.1406 1.2812 0.71875 0.84375 1.0781 2.0742 1.0781 3.6875v7.2812h-3.8438v-6.2344c0.007812-0.09375 0.015625-0.1875 0.015625-0.28125v-0.4375c0-0.84375-0.125-1.457-0.375-1.8438-0.25-0.38281-0.65234-0.57812-1.2031-0.57812-0.73047 0-1.293 0.30469-1.6875 0.90625-0.38672 0.59375-0.58984 1.4609-0.60938 2.5938v5.875h-3.8438v-6.2344c0-1.3203-0.11719-2.1758-0.34375-2.5625-0.23047-0.38281-0.63672-0.57812-1.2188-0.57812-0.73047 0-1.2969 0.30469-1.7031 0.90625-0.39844 0.60547-0.59375 1.4648-0.59375 2.5781v5.8906h-3.8438v-11.969h3.8438v1.75c0.46875-0.66406 1.0039-1.1719 1.6094-1.5156 0.61328-0.34375 1.2891-0.51562 2.0312-0.51562 0.82031 0 1.5508 0.19922 2.1875 0.59375 0.63281 0.39844 1.1133 0.96094 1.4375 1.6875z"
         id="path188" />
    </symbol>
    <symbol
       id="p"
       overflow="visible">
      <path
         d="m13.859-7.2812v7.2812h-3.8438v-5.5469c0-1.0508-0.027344-1.7695-0.078125-2.1562-0.042969-0.39453-0.12109-0.6875-0.23438-0.875-0.14844-0.25-0.35156-0.44141-0.60938-0.57812-0.25-0.14453-0.54297-0.21875-0.875-0.21875-0.79297 0-1.418 0.3125-1.875 0.9375-0.46094 0.61719-0.6875 1.4648-0.6875 2.5469v5.8906h-3.8125v-16.625h3.8125v6.4062c0.58203-0.69531 1.1953-1.207 1.8438-1.5312 0.64453-0.33203 1.3594-0.5 2.1406-0.5 1.3828 0 2.4297 0.42969 3.1406 1.2812 0.71875 0.84375 1.0781 2.0742 1.0781 3.6875z"
         id="path191" />
    </symbol>
    <symbol
       id="o"
       overflow="visible">
      <path
         d="m2.0156-15.953h4.5781l5.8125 10.938v-10.938h3.8906v15.953h-4.5938l-5.7969-10.938v10.938h-3.8906z"
         id="path194" />
    </symbol>
    <symbol
       id="n"
       overflow="visible">
      <path
         d="m1.7031-4.6562v-7.3125h3.8438v1.2031c0 0.64844-0.007813 1.4609-0.015625 2.4375v1.9688c0 0.96094 0.023438 1.6523 0.078125 2.0781 0.050781 0.41797 0.13281 0.72656 0.25 0.92188 0.15625 0.25 0.35938 0.44531 0.60938 0.57812 0.25781 0.13672 0.55078 0.20312 0.875 0.20312 0.80078 0 1.4258-0.30469 1.875-0.92188 0.45703-0.61328 0.6875-1.4688 0.6875-2.5625v-5.9062h3.8281v11.969h-3.8281v-1.7344c-0.57422 0.69922-1.1836 1.2148-1.8281 1.5469-0.64844 0.33203-1.3555 0.5-2.125 0.5-1.3867 0-2.4453-0.42188-3.1719-1.2656-0.71875-0.85156-1.0781-2.0859-1.0781-3.7031z"
         id="path197" />
    </symbol>
    <symbol
       id="m"
       overflow="visible">
      <path
         d="m13.859-7.2812v7.2812h-3.8438v-5.5781c0-1.0312-0.027344-1.7383-0.078125-2.125-0.042969-0.39453-0.12109-0.6875-0.23438-0.875-0.14844-0.25-0.35156-0.44141-0.60938-0.57812-0.25-0.14453-0.54297-0.21875-0.875-0.21875-0.79297 0-1.418 0.3125-1.875 0.9375-0.46094 0.61719-0.6875 1.4648-0.6875 2.5469v5.8906h-3.8125v-11.969h3.8125v1.75c0.58203-0.69531 1.1953-1.207 1.8438-1.5312 0.64453-0.33203 1.3594-0.5 2.1406-0.5 1.3828 0 2.4297 0.42969 3.1406 1.2812 0.71875 0.84375 1.0781 2.0742 1.0781 3.6875z"
         id="path200" />
    </symbol>
    <symbol
       id="l"
       overflow="visible">
      <path
         d="m2.0156-15.953h6.8125c2.0312 0 3.5859 0.45312 4.6719 1.3594 1.0938 0.89844 1.6406 2.1797 1.6406 3.8438 0 1.6797-0.54688 2.9688-1.6406 3.875-1.0859 0.89844-2.6406 1.3438-4.6719 1.3438h-2.7031v5.5312h-4.1094zm4.1094 2.9844v4.4531h2.2656c0.80078 0 1.4141-0.19141 1.8438-0.57812 0.4375-0.38281 0.65625-0.9375 0.65625-1.6562 0-0.70703-0.21875-1.2539-0.65625-1.6406-0.42969-0.38281-1.043-0.57812-1.8438-0.57812z"
         id="path203" />
    </symbol>
    <symbol
       id="k"
       overflow="visible">
      <path
         d="m1.8438-11.969h3.8125v11.75c0 1.6016-0.38672 2.8281-1.1562 3.6719-0.76172 0.84375-1.8711 1.2656-3.3281 1.2656h-1.8906v-2.5h0.65625c0.72656 0 1.2266-0.16797 1.5-0.5 0.26953-0.32422 0.40625-0.96875 0.40625-1.9375zm0-4.6562h3.8125v3.125h-3.8125z"
         id="path206" />
    </symbol>
    <symbol
       id="j"
       overflow="visible">
      <path
         d="m11.5-11.594v3.125c-0.52344-0.35156-1.043-0.61328-1.5625-0.78125-0.52344-0.17578-1.0625-0.26562-1.625-0.26562-1.0742 0-1.9062 0.3125-2.5 0.9375s-0.89062 1.4961-0.89062 2.6094c0 1.1172 0.29688 1.9844 0.89062 2.6094s1.4258 0.9375 2.5 0.9375c0.59375 0 1.1562-0.085937 1.6875-0.26562 0.53906-0.17578 1.0391-0.44141 1.5-0.79688v3.125c-0.59375 0.23047-1.1992 0.39453-1.8125 0.5-0.61719 0.11328-1.2344 0.17188-1.8594 0.17188-2.1562 0-3.8438-0.55078-5.0625-1.6562-1.2188-1.1133-1.8281-2.6562-1.8281-4.625s0.60938-3.5039 1.8281-4.6094c1.2188-1.1133 2.9062-1.6719 5.0625-1.6719 0.625 0 1.2383 0.058594 1.8438 0.17188 0.61328 0.10547 1.2227 0.26562 1.8281 0.48438z"
         id="path209" />
    </symbol>
  </defs>
  <g
     id="g286">
    <g
       id="g297"
       transform="translate(2.8885888,13.10584)"
       style="fill:#ff00ff">
      <path
         d="m 268.36142,607.27167 h 157.5 c 7.4375,0 13.125,-5.6875 13.125,-13.125 v -326.38 c 0,-121.19 -41.125,-201.250004 -91.875,-201.250004 -50.75,0 -91.875,97.562004 -91.875,201.250004 v 326.38 c 0,7.4375 5.6875,13.125 13.125,13.125 z m 28.438,-411.25 c 5.25,-27.562 14,-52.938 24.5,-71.312 3.5,-6.125 11.812,-8.3125 17.938,-4.8125 6.126,3.5 8.3125,11.812 4.8125,17.938 -8.75,15.75 -16.625,38.5 -21.438,63.438 -1.3125,6.125 -6.5625,10.5 -12.688,10.5 -0.875,0 -1.75,0 -2.625,-0.4375 -7.4375,-1.3125 -11.812,-8.3125 -10.5,-15.312 z m -6.125,45.938 c 0.4375,-7.4375 6.5625,-12.688 14,-12.25 7.4375,0.438 12.688,6.5625 12.25,14 -0.4375,6.125 -0.4375,13.125 -0.4375,19.688 0,7.4375 -5.6875,13.125 -13.125,13.125 -7.4375,0 -13.125,-5.6875 -13.125,-13.125 0,-7 0,-14.438 0.4375,-21.438 z"
         id="path214"
         style="fill:#ff00ff" />
      <path
         d="m 508.55142,456.33167 65.625,65.625 c 2.625,2.625 6.125,3.9375 9.1875,3.9375 3.0625,0 6.5625,-1.3125 9.1875,-3.9375 5.25,-5.25 5.25,-13.562 0,-18.375 l -56.438,-56.438 56.438,-56.438 c 5.25,-5.25 5.25,-13.562 0,-18.375 l -56.438,-56.438 56.438,-56.438 c 5.25,-5.25 5.25,-13.562 0,-18.375 -5.25,-5.25 -13.562,-5.25 -18.375,0 l -65.625,65.625 c -5.25,5.25 -5.25,13.562 0,18.375 l 56.438,56.438 -56.438,56.438 c -5.25,5.25 -5.25,13.125 0,18.375 z"
         id="path216"
         style="fill:#ff00ff" />
      <path
         d="m 101.67142,521.96167 c 2.625,2.625 6.125,3.9375 9.1875,3.9375 3.0625,0 6.5625,-1.3125 9.1875,-3.9375 l 65.625,-65.625 c 5.25,-5.25 5.25,-13.562 0,-18.375 l -56.438,-56.438 56.438,-56.438 c 5.25,-5.25 5.25,-13.562 0,-18.375 l -65.625,-65.625 c -5.25,-5.25 -13.562,-5.25 -18.375,0 -5.250003,5.25 -5.250003,13.562 0,18.375 l 56.438,56.438 -56.438,56.438 c -5.250003,5.25 -5.250003,13.562 0,18.375 l 56.438,56.438 -56.438,56.438 c -5.250003,5.25 -5.250003,13.125 0,18.375 z"
         id="path218"
         style="fill:#ff00ff" />
    </g>
  </g>
</svg>
